<?xml version="1.0" encoding="UTF-8"?>
<svg id="Layer_1" data-name="Layer 1" xmlns="http://www.w3.org/2000/svg" viewBox="0 0 501.83 76.41">
  <defs>
    <style>
      .cls-1 {
        fill: #fff;
      }

      .cls-2 {
        fill: #5ce1e6;
      }

      .cls-3 {
        fill: #00040f;
      }
    </style>
  </defs>
  <g>
    <path class="cls-2" d="M72,33.38c-2.16-2.17-4.3-4.31-6.56-6.58,1.35-2.3,2.09-5.1,1.47-8.14-.91-4.45-3.53-7.49-7.83-8.85-4.36-1.37-8.33-.37-11.59,2.86-2.34,2.32-4.66,4.63-6.99,6.96l-.1,.1c-1.83,1.83-3.66,3.66-5.48,5.49-.23,.23-.45,.46-.68,.68-2.22,2.23-4.45,4.47-6.68,6.7-.08,.08-.15,.16-.22,.25l-.9,.91c-2.34-2.33-4.39-4.37-6.5-6.47,.32-.34,.63-.69,.96-1.02,6.64-6.65,13.25-13.33,19.94-19.92C46.78,.48,53.92-1.44,61.87,1.09c8.01,2.54,12.79,8.26,14.16,16.57,.96,5.83-.53,11.14-4.03,15.72Z"/>
    <path class="cls-1" d="M4.51,42.83c2.24,2.24,4.35,4.36,6.54,6.56-1.52,2.57-2.24,5.42-1.58,8.52,.94,4.39,3.58,7.37,7.82,8.7,4.3,1.35,8.26,.4,11.48-2.79,6.69-6.6,13.3-13.27,19.94-19.93,.4-.4,.68-.92,.97-1.33,2.38,2.38,4.49,4.5,6.65,6.67-.2,.21-.48,.53-.78,.83-6.68,6.68-13.31,13.41-20.04,20.03-6.05,5.94-13.28,7.81-21.32,5.14-7.93-2.64-12.6-8.39-13.89-16.64-.91-5.78,.61-11.05,4.21-15.75Z"/>
    <path class="cls-2" d="M74.57,64.03c-.1,.23-.21,.47-.32,.7-2.67,5.49-7.9,9.65-13.84,11.05-3.98,.94-8.23,.62-12.06-.79-.96-.35-1.9-.78-2.8-1.27-.45-.25-.89-.51-1.32-.79-.34-.22-.98-.51-1.03-.96-.06-.48,.64-.95,.93-1.25,.43-.44,.86-.87,1.29-1.31,.86-.87,1.73-1.73,2.61-2.59,.47-.46,.95-.93,1.42-1.39,2.74,1.66,6.17,2.14,9.26,1.28,3.09-.86,5.78-3.04,7.27-5.87,1.17-2.23,1.59-4.87,.99-7.31-.55-2.26-1.93-4.22-3.41-6.01-4.17-5.03-9.4-9.08-13.75-13.95-2.31,2.31-4.62,4.63-6.93,6.94l-7.09-7.03c4.46-4.47,8.93-8.94,13.39-13.41l16.37,16.08c3.34,3.28,6.75,6.66,8.77,10.88,2.52,5.27,2.6,11.64,.25,16.99Z"/>
    <path class="cls-1" d="M40.73,42.65l-7.31,7.31c-2.14,2.14-4.2,4.19-6.33,6.32,0,0-.02-.01-.02-.02-.14-.12-.41-.34-.65-.59-6.78-6.78-13.62-13.49-20.31-20.35C.39,29.46-1.35,22.39,1.04,14.6,3.43,6.86,8.9,2.15,16.82,.45c5.8-1.25,12.41,.45,16.71,4.15-2.17,2.17-4.3,4.28-6.51,6.48-2.2-1.3-4.66-2.08-7.37-1.76-4.69,.54-8.01,3.01-9.66,7.41-1.68,4.47-.78,8.61,2.54,12.02,2.46,2.53,4.95,5.04,7.46,7.54,2.16,2.16,4.34,4.31,6.5,6.47l7.14-7.14,7.09,7.03Z"/>
  </g>
  <g>
    <path class="cls-1" d="M349.52,52.55h24.83v8.47h-35.33V15.39h34.48v8.47h-23.99v28.68Zm-.78-18.77h21.97v8.21h-21.97v-8.21Z"/>
    <path class="cls-1" d="M419.41,61.72c-3.52,0-6.79-.58-9.81-1.73-3.02-1.15-5.64-2.79-7.85-4.92s-3.94-4.63-5.18-7.5c-1.24-2.87-1.86-6.02-1.86-9.45s.62-6.58,1.86-9.45c1.24-2.87,2.98-5.37,5.21-7.5,2.24-2.13,4.86-3.77,7.85-4.92,3-1.15,6.28-1.73,9.84-1.73,3.95,0,7.53,.68,10.72,2.05s5.88,3.38,8.05,6.03l-6.78,6.26c-1.56-1.78-3.3-3.12-5.21-4.01-1.91-.89-4-1.34-6.26-1.34-2.13,0-4.09,.35-5.87,1.04-1.78,.7-3.32,1.69-4.63,3-1.3,1.3-2.31,2.85-3.03,4.63-.72,1.78-1.08,3.76-1.08,5.93s.36,4.15,1.08,5.93,1.73,3.32,3.03,4.63c1.3,1.3,2.84,2.3,4.63,3,1.78,.7,3.74,1.04,5.87,1.04,2.26,0,4.34-.45,6.26-1.34,1.91-.89,3.65-2.25,5.21-4.07l6.78,6.26c-2.17,2.65-4.86,4.67-8.05,6.06s-6.79,2.09-10.79,2.09Z"/>
    <path class="cls-2" d="M415.62,37.85h0c0,2.47,1.87,4.47,4.17,4.47h67.18v-8.93h-67.18c-2.3,0-4.17,2-4.17,4.47Z"/>
    <rect class="cls-1" x="491.26" y="15.39" width="10.57" height="45.64"/>
    <rect class="cls-1" x="459.98" y="15.39" width="10.56" height="15.46"/>
    <rect class="cls-1" x="459.98" y="44.7" width="10.56" height="16.32"/>
    <path class="cls-2" d="M116.97,62.46c-3.17,0-6.09-.59-8.74-1.78-2.66-1.18-4.84-2.87-6.53-5.06l6.03-7.24c1.29,1.7,2.66,2.98,4.09,3.85,1.43,.87,2.97,1.31,4.62,1.31,4.42,0,6.63-2.59,6.63-7.77V23.47h-16.48V14.76h27.27v30.42c0,5.81-1.43,10.14-4.29,13-2.86,2.86-7.06,4.29-12.6,4.29Z"/>
    <path class="cls-2" d="M206.34,38.21c0,3.48-.64,6.71-1.94,9.68-1.3,2.97-3.1,5.54-5.39,7.71-2.31,2.16-5,3.85-8.11,5.06-3.1,1.21-6.49,1.81-10.15,1.81s-7.14-.6-10.29-1.81c-3.15-1.21-5.87-2.91-8.18-5.09-2.3-2.19-4.09-4.76-5.36-7.71-1.27-2.94-1.91-6.16-1.91-9.64s.64-6.71,1.91-9.65c1.27-2.95,3.07-5.52,5.39-7.71,2.32-2.19,5.05-3.89,8.17-5.09,3.13-1.21,6.53-1.81,10.19-1.81s7.12,.6,10.22,1.81c3.1,1.21,5.8,2.91,8.11,5.09,2.3,2.19,4.09,4.75,5.39,7.67s1.94,6.16,1.94,9.69Z"/>
    <polygon class="cls-2" points="266.64 14.76 255.99 14.76 243.43 35.57 230.93 14.76 219.41 14.76 237.56 44.94 237.56 61.65 248.42 61.65 248.42 45.05 266.64 14.76"/>
    <path class="cls-1" d="M293.44,61.65V23.6h-15.01V14.76h40.87v8.84h-15.01V61.65h-10.85Z"/>
    <path class="cls-3" d="M168.56,28.37c.15-.13,.26-.14,.44-.07,4.64,1.78,9.28,3.56,13.93,5.34,.19,.07,.31,.05,.46-.08,1.39-1.15,4.84-4.01,6.48-4.79,.46-.22,.95-.39,1.45-.52,.26-.07,.56-.07,.83-.04,.22,.03,.4,.13,.54,.29,.13,.15,.21,.35,.21,.57,0,.27-.05,.57-.16,.82-.21,.47-.44,.93-.72,1.36-1.01,1.51-4.31,4.54-5.65,5.75-.15,.13-.19,.25-.14,.44,1.12,4.84,2.24,9.69,3.36,14.53,.04,.18,.02,.3-.13,.42-.51,.42-1,.86-1.49,1.29h0c-.1,.08-.25,.06-.31-.05-2.35-3.92-4.69-7.82-7.03-11.73-.04-.06-.12-.08-.18-.04,0,0,0,0,0,0-.66,.49-1.3,1.01-1.97,1.49-1.8,1.29-3.6,2.57-5.41,3.85-.16,.11-.22,.2-.18,.4,.27,1.28,.52,2.57,.77,3.85,.02,.08,.02,.2-.02,.25-.34,.31-.68,.6-1.04,.91-.08,.07-.22,.05-.26-.06-.6-1.28-1.19-2.53-1.78-3.79-.14,.07-.24,.14-.35,.18-.4,.16-.79,.34-1.2,.45-.13,.04-.23,.01-.28-.05-.06-.06-.07-.16-.01-.29,.17-.39,.4-.76,.62-1.13,.06-.1,.14-.2,.23-.32-1.17-.76-2.33-1.52-3.51-2.29-.09-.06-.1-.2-.02-.27,.35-.31,.7-.61,1.05-.9,.05-.04,.17-.02,.25,0,1.24,.43,2.47,.86,3.71,1.3,.19,.07,.29,.02,.42-.12,1.52-1.61,3.03-3.22,4.56-4.82,.57-.59,1.17-1.16,1.75-1.74,0,0,0,0,0,0,.05-.05,.04-.14-.01-.18-3.55-2.86-7.08-5.72-10.64-8.59-.1-.08-.1-.23,0-.32h0c.5-.43,1-.86,1.49-1.3Z"/>
    <g>
      <path class="cls-1" d="M167.58,50.89c-.08,0-.17-.03-.24-.09-.16-.13-.18-.37-.05-.53,.3-.37,.53-.59,.53-.59,.15-.14,.38-.14,.53,0,.14,.15,.14,.38,0,.53,0,0-.2,.2-.47,.53-.07,.09-.18,.14-.29,.14Z"/>
      <path class="cls-1" d="M166.49,56.01c-.14,0-.28-.08-.34-.22-.04-.09-.09-.19-.14-.29-.19-.35-.31-.74-.35-1.15-.02-.21,.13-.39,.34-.41,.21-.01,.39,.13,.41,.34,.03,.31,.12,.6,.26,.87,.06,.11,.12,.22,.16,.33,.08,.19,0,.41-.19,.5-.05,.02-.1,.03-.15,.03Zm-.29-2.7s-.07,0-.11-.02c-.2-.06-.31-.27-.25-.47,.14-.44,.34-.89,.61-1.36,.11-.18,.33-.24,.51-.13,.18,.11,.24,.33,.13,.51-.24,.41-.43,.81-.54,1.2-.05,.16-.2,.26-.36,.26Zm-.12,5.17c-.05-.1-.04-.23,.01-.34,.22-.37,.33-.76,.34-1.15,0-.2,.17-.36,.37-.37,.21,0,.37,.17,.37,.38,0,.52-.16,1.03-.43,1.51-.06,.11-.17,.18-.29,.18l-.37-.22Z"/>
    </g>
  </g>
</svg>